<svg width="44" height="44" viewBox="0 0 44 44" fill="none"
    xmlns="http://www.w3.org/2000/svg">
    <path d="M26.4 0H17.6C7.87979 0 0 7.87979 0 17.6V26.4C0 36.1202 7.87979 44 17.6 44H26.4C36.1202 44 44 36.1202 44 26.4V17.6C44 7.87979 36.1202 0 26.4 0Z" fill="#F5F5F7"/>
    <path fill-rule="evenodd" clip-rule="evenodd" d="M17.5362 18.6522C17.5362 21.0294 19.5349 22.9565 22 22.9565C24.4651 22.9565 26.4638 21.0294 26.4638 18.6522C26.4638 16.275 24.4651 14.3478 22 14.3478C19.5349 14.3478 17.5362 16.275 17.5362 18.6522ZM19.7681 18.6522C19.7681 19.8408 20.7669 20.8043 22 20.8043C23.2331 20.8043 24.2319 19.8408 24.2319 18.6522C24.2319 17.4635 23.2331 16.5 22 16.5C20.7669 16.5 19.7681 17.4635 19.7681 18.6522Z" fill="#1D1D17"/>
    <path fill-rule="evenodd" clip-rule="evenodd" d="M22 9.88405C28.6913 9.88405 34.116 15.3086 34.116 22C34.116 28.6914 28.6913 34.1159 22 34.1159C15.3087 34.1159 9.88409 28.6914 9.88409 22C9.88409 15.3086 15.3087 9.88405 22 9.88405ZM31.9131 22C31.9131 24.3022 31.1277 26.4212 29.8115 28.1039C28.0007 25.7327 25.1435 24.2029 21.9295 24.2029C18.7562 24.2029 15.9321 25.6933 14.1181 28.012C12.8437 26.3444 12.087 24.2606 12.087 22C12.087 16.5251 16.5247 12.0869 22 12.0869C27.4753 12.0869 31.9131 16.5251 31.9131 22ZM22 31.913C24.3682 31.913 26.5424 31.0824 28.2475 29.6967C26.853 27.7068 24.5433 26.4058 21.9295 26.4058C19.3477 26.4058 17.0622 27.6748 15.6623 29.623C17.3805 31.0529 19.5901 31.913 22 31.913Z" fill="#1D1D17"/>
</svg>
