<?xml version="1.0" encoding="utf-8"?>
<!-- Generator: Adobe Illustrator 23.0.1, SVG Export Plug-In . SVG Version: 6.00 Build 0)  -->
<svg version="1.1" id="search"
    xmlns="http://www.w3.org/2000/svg"
    xmlns:xlink="http://www.w3.org/1999/xlink" x="0px" y="0px" viewBox="0 0 14400 14400" enable-background="new 0 0 14400 14400" xml:space="preserve">
    <path fill="#FFFFFF" d="M7203.49,7221.5h-8c-9.94,0-18-8.06-18-18v-8c0-9.94,8.06-18,18-18h8c9.94,0,18,8.06,18,18v8
	C7221.49,7213.44,7213.43,7221.5,7203.49,7221.5z"/>
    <circle fill="none" stroke="#1D1D17" stroke-width="2" stroke-miterlimit="10" cx="7196.49" cy="7195.33" r="6.5"/>
    <g opacity="0.1">
        <path fill="#1D1D17" d="M7196.49,7189.87c-3.02,0-5.47,2.45-5.47,5.47c0,3.02,2.45,5.47,5.47,5.47s5.47-2.45,5.47-5.47
		C7201.96,7192.31,7199.51,7189.87,7196.49,7189.87L7196.49,7189.87z"/>
    </g>
    <rect x="7201.07" y="7199" transform="matrix(0.7071 -0.7071 0.7071 0.7071 -2982.6343 7201.5229)" fill="#1D1D17" width="1.24" height="4.23"/>
    <rect x="7203.81" y="7200.37" transform="matrix(0.7071 -0.7071 0.7071 0.7071 -2983.8789 7204.5278)" fill="#1D1D17" width="1.78" height="7.51"/>
    <rect x="7201.32" y="7201.35" transform="matrix(0.9723 -0.2336 0.2336 0.9723 -1483.2871 1881.8885)" fill="#1D1D17" width="0.47" height="0.7"/>
    <rect x="7202.05" y="7200.67" transform="matrix(0.1539 -0.9881 0.9881 0.1539 -1021.304 13209.3623)" fill="#1D1D17" width="0.47" height="0.7"/>
</svg>