<svg width="52" height="52" viewBox="0 0 52 52" fill="none"
    xmlns="http://www.w3.org/2000/svg">
    <g filter="url(#search)">
        <path d="M30.4 0H21.6C11.8798 0 4 7.87979 4 17.6V26.4C4 36.1202 11.8798 44 21.6 44H30.4C40.1202 44 48 36.1202 48 26.4V17.6C48 7.87979 40.1202 0 30.4 0Z" fill="#F5F5F7"/>
        <path d="M23.5 13C25.2239 13 26.8772 13.6848 28.0962 14.9038C29.3152 16.1228 30 17.7761 30 19.5C30 21.11 29.41 22.59 28.44 23.73L28.71 24H29.5L34.5 29L33 30.5L28 25.5V24.71L27.73 24.44C26.59 25.41 25.11 26 23.5 26C21.7761 26 20.1228 25.3152 18.9038 24.0962C17.6848 22.8772 17 21.2239 17 19.5C17 17.7761 17.6848 16.1228 18.9038 14.9038C20.1228 13.6848 21.7761 13 23.5 13ZM23.5 15C21 15 19 17 19 19.5C19 22 21 24 23.5 24C26 24 28 22 28 19.5C28 17 26 15 23.5 15Z" fill="#1D1D17"/>
    </g>
    <defs>
        <filter id="search" x="0" y="0" width="52" height="52" filterUnits="userSpaceOnUse" color-interpolation-filters="sRGB">
            <feFlood flood-opacity="0" result="BackgroundImageFix"/>
            <feColorMatrix in="SourceAlpha" type="matrix" values="0 0 0 0 0 0 0 0 0 0 0 0 0 0 0 0 0 0 127 0"/>
            <feOffset dy="4"/>
            <feGaussianBlur stdDeviation="2"/>
            <feColorMatrix type="matrix" values="0 0 0 0 0 0 0 0 0 0 0 0 0 0 0 0 0 0 0.37 0"/>
            <feBlend mode="normal" in2="BackgroundImageFix" result="effect1_dropShadow"/>
            <feBlend mode="normal" in="SourceGraphic" in2="effect1_dropShadow" result="shape"/>
        </filter>
    </defs>
</svg>
